<svg width="425.9375px" height="122px" xmlns="http://www.w3.org/2000/svg" viewBox="37.03125 14 425.9375 122" style="background: rgba(0, 0, 0, 0);" preserveAspectRatio="xMidYMid"><defs><filter id="editing-extrusion" x="-100%" y="-100%" width="300%" height="300%"><feFlood result="color1" flood-color="#444"></feFlood><feConvolveMatrix order="8,8" divisor="1" kernelMatrix="1 0 0 0 0 0 0 0 0 1 0 0 0 0 0 0 0 0 1 0 0 0 0 0 0 0 0 1 0 0 0 0 0 0 0 0 1 0 0 0 0 0 0 0 0 1 0 0 0 0 0 0 0 0 1 0 0 0 0 0 0 0 0 1" in="SourceAlpha" result="extrude"></feConvolveMatrix><feComposite in="color1" in2="extrude" result="comp-extrude" operator="in"></feComposite><feOffset dx="4" dy="4" in="comp-extrude" result="offset-extrude"></feOffset><feMerge><feMergeNode in="offset-extrude"></feMergeNode><feMergeNode in="SourceGraphic"></feMergeNode></feMerge></filter></defs><g filter="url(#editing-extrusion)"><g transform="translate(101.13499143719673, 104.47000122070312)"><path d="M26.11-42.69L26.11-42.69L26.11-42.69Q41.79-42.69 41.79-31.62L41.79-31.62L41.79-31.62Q41.79-25.54 37.89-21.89L37.89-21.89L37.89-21.89Q34.05-18.24 27.33-18.24L27.33-18.24L27.33-18.24Q24.19-18.24 21.76-20.03L21.76-20.03L21.76-20.03Q20.61-20.80 19.84-21.82L19.84-21.82L19.84-21.82Q24.51-21.82 26.98-24.67L26.98-24.67L26.98-24.67Q29.44-27.52 29.44-33.09L29.44-33.09L29.44-33.09Q29.44-38.66 23.94-38.66L23.94-38.66L22.40-38.66L22.40-38.66Q22.02-38.66 21.70-38.59L21.70-38.59L14.34 0L0.45 0L8.32-41.92L8.32-41.92Q15.17-42.56 19.14-42.62L19.14-42.62L19.14-42.62Q23.10-42.69 26.11-42.69ZM44.90-1.92L44.90-1.92L44.90-1.92Q43.39-3.58 42.72-6.21L42.72-6.21L42.72-6.21Q42.05-8.83 42.05-13.12L42.05-13.12L42.05-13.12Q42.05-17.41 43.52-21.31L43.52-21.31L43.52-21.31Q44.99-25.22 47.68-28.03L47.68-28.03L47.68-28.03Q53.18-33.92 62.27-33.92L62.27-33.92L62.27-33.92Q65.54-33.92 67.90-32.83L67.90-32.83L78.85-33.92L74.11-8.96L74.11-8.96Q73.92-8.19 73.92-6.78L73.92-6.78L73.92-6.78Q73.92-5.38 74.78-4.48L74.78-4.48L74.78-4.48Q75.65-3.58 76.93-3.46L76.93-3.46L76.93-3.46Q76.29-1.28 73.95 0L73.95 0L73.95 0Q71.62 1.28 68.99 1.28L68.99 1.28L68.99 1.28Q66.37 1.28 64.61 0.29L64.61 0.29L64.61 0.29Q62.85-0.70 62.34-2.37L62.34-2.37L62.34-2.37Q61.31-0.77 59.14 0.26L59.14 0.26L59.14 0.26Q56.96 1.28 54.05 1.28L54.05 1.28L54.05 1.28Q51.14 1.28 48.77 0.51L48.77 0.51L48.77 0.51Q46.40-0.26 44.90-1.92ZM58.40-27.90L58.40-27.90L58.40-27.90Q57.66-26.75 57.02-24.80L57.02-24.80L57.02-24.80Q56.38-22.85 55.33-17.63L55.33-17.63L55.33-17.63Q54.27-12.42 54.27-8.70L54.27-8.70L54.27-8.70Q54.27-4.99 54.85-3.90L54.85-3.90L54.85-3.90Q55.42-2.82 56.45-2.82L56.45-2.82L56.45-2.82Q58.50-2.82 60-4.77L60-4.77L60-4.77Q61.50-6.72 62.08-10.18L62.08-10.18L65.47-28.93L65.47-28.93Q64.13-30.08 62.56-30.08L62.56-30.08L62.56-30.08Q60.99-30.08 60.06-29.57L60.06-29.57L60.06-29.57Q59.14-29.06 58.40-27.90ZM102.34-17.98L102.34-17.98L102.34-17.98Q104.64-22.08 104.64-26.24L104.64-26.24L104.64-26.24Q104.64-28.99 102.66-28.99L102.66-28.99L102.66-28.99Q101.12-28.99 99.52-26.37L99.52-26.37L99.52-26.37Q97.86-23.74 97.34-20.35L97.34-20.35L94.02 0L80.77 1.28L87.30-32.64L97.86-33.92L96.70-27.46L96.70-27.46Q99.84-33.92 106.88-33.92L106.88-33.92L106.88-33.92Q110.59-33.92 112.61-32L112.61-32L112.61-32Q114.62-30.08 114.62-26.14L114.62-26.14L114.62-26.14Q114.62-22.21 112.03-19.71L112.03-19.71L112.03-19.71Q109.44-17.22 105.02-17.22L105.02-17.22L105.02-17.22Q103.10-17.22 102.34-17.98ZM132.16-30.34L132.16-30.34L132.16-30.34Q135.62-33.92 142.91-33.92L142.91-33.92L142.91-33.92Q146.94-33.92 149.15-31.78L149.15-31.78L149.15-31.78Q151.36-29.63 151.36-25.70L151.36-25.70L151.36-25.70Q151.36-21.76 149.15-18.98L149.15-18.98L149.15-18.98Q146.94-16.19 142.85-15.04L142.85-15.04L142.85-15.04Q143.17-13.76 143.62-12.42L143.62-12.42L144.51-9.86L144.51-9.86Q145.73-6.59 146.69-5.44L146.69-5.44L146.69-5.44Q147.65-4.29 148.93-3.90L148.93-3.90L148.93-3.90Q148.22-1.28 145.66 0.13L145.66 0.13L145.66 0.13Q143.62 1.28 140.80 1.28L140.80 1.28L140.80 1.28Q132.54 1.28 131.46-11.46L131.46-11.46L131.46-11.46Q131.26-13.25 131.26-15.04L131.26-15.04L131.26-15.04Q134.46-15.94 136.70-18.94L136.70-18.94L136.70-18.94Q138.94-21.95 138.94-25.47L138.94-25.47L138.94-25.47Q138.94-28.99 136.45-28.99L136.45-28.99L136.45-28.99Q134.66-28.99 133.25-27.01L133.25-27.01L133.25-27.01Q131.84-25.02 131.20-21.63L131.20-21.63L126.98 0L114.05 1.28L123.01-44.80L135.87-46.08L134.40-38.46L134.40-38.46Q133.44-33.09 132.16-30.34ZM181.63-9.86L181.63-9.86L181.63-9.86Q182.85-8.32 182.85-5.82L182.85-5.82L182.85-5.82Q182.85-2.37 180.29-0.54L180.29-0.54L180.29-0.54Q177.73 1.28 173.70 1.28L173.70 1.28L173.70 1.28Q171.39 1.28 167.87 0.77L167.87 0.77L167.87 0.77Q160.96-0.32 158.85-0.32L158.85-0.32L158.85-0.32Q156.74-0.32 155.90-0.22L155.90-0.22L155.90-0.22Q155.07-0.13 153.73 0L153.73 0L161.60-42.24L189.18-42.24L189.18-42.24Q189.18-38.34 187.30-36.29L187.30-36.29L187.30-36.29Q185.41-34.24 181.70-34.24L181.70-34.24L181.70-34.24Q177.98-34.24 174.21-35.97L174.21-35.97L172.22-24.77L183.62-24.77L183.62-24.77Q183.62-21.38 181.95-19.49L181.95-19.49L181.95-19.49Q180.29-17.60 177.50-17.60L177.50-17.60L177.50-17.60Q174.72-17.60 172.99-18.24L172.99-18.24L172.99-18.24Q171.26-18.88 171.07-19.07L171.07-19.07L168.77-6.98L168.77-6.98Q170.30-6.78 173.18-6.78L173.18-6.78L173.18-6.78Q178.11-6.78 181.63-9.86ZM191.52-1.92L191.52-1.92L191.52-1.92Q190.02-3.58 189.34-6.21L189.34-6.21L189.34-6.21Q188.67-8.83 188.67-13.12L188.67-13.12L188.67-13.12Q188.67-17.41 190.14-21.31L190.14-21.31L190.14-21.31Q191.62-25.22 194.30-28.03L194.30-28.03L194.30-28.03Q199.81-33.92 208.90-33.92L208.90-33.92L208.90-33.92Q212.16-33.92 214.53-32.83L214.53-32.83L225.47-33.92L220.74-8.96L220.74-8.96Q220.54-8.19 220.54-6.78L220.54-6.78L220.54-6.78Q220.54-5.38 221.41-4.48L221.41-4.48L221.41-4.48Q222.27-3.58 223.55-3.46L223.55-3.46L223.55-3.46Q222.91-1.28 220.58 0L220.58 0L220.58 0Q218.24 1.28 215.62 1.28L215.62 1.28L215.62 1.28Q212.99 1.28 211.23 0.29L211.23 0.29L211.23 0.29Q209.47-0.70 208.96-2.37L208.96-2.37L208.96-2.37Q207.94-0.77 205.76 0.26L205.76 0.26L205.76 0.26Q203.58 1.28 200.67 1.28L200.67 1.28L200.67 1.28Q197.76 1.28 195.39 0.51L195.39 0.51L195.39 0.51Q193.02-0.26 191.52-1.92ZM205.02-27.90L205.02-27.90L205.02-27.90Q204.29-26.75 203.65-24.80L203.65-24.80L203.65-24.80Q203.01-22.85 201.95-17.63L201.95-17.63L201.95-17.63Q200.90-12.42 200.90-8.70L200.90-8.70L200.90-8.70Q200.90-4.99 201.47-3.90L201.47-3.90L201.47-3.90Q202.05-2.82 203.07-2.82L203.07-2.82L203.07-2.82Q205.12-2.82 206.62-4.77L206.62-4.77L206.62-4.77Q208.13-6.72 208.70-10.18L208.70-10.18L212.10-28.93L212.10-28.93Q210.75-30.08 209.18-30.08L209.18-30.08L209.18-30.08Q207.62-30.08 206.69-29.57L206.69-29.57L206.69-29.57Q205.76-29.06 205.02-27.90ZM248.06-22.46L248.06-22.46L248.06-22.46Q248.96-24.83 248.96-26.88L248.96-26.88L248.96-26.88Q248.96-30.66 245.89-30.66L245.89-30.66L245.89-30.66Q244.29-30.66 242.98-29.22L242.98-29.22L242.98-29.22Q241.66-27.78 241.66-25.98L241.66-25.98L241.66-25.98Q241.66-24.70 242.69-23.68L242.69-23.68L242.69-23.68Q244.16-22.27 247.94-19.97L247.94-19.97L247.94-19.97Q251.71-17.66 253.15-15.78L253.15-15.78L253.15-15.78Q254.59-13.89 254.59-11.30L254.59-11.30L254.59-11.30Q254.59-8.70 253.34-6.34L253.34-6.34L253.34-6.34Q252.10-3.97 249.86-2.30L249.86-2.30L249.86-2.30Q245.06 1.28 237.38 1.28L237.38 1.28L237.38 1.28Q233.22 1.28 230.02-0.90L230.02-0.90L230.02-0.90Q226.82-3.01 226.82-5.50L226.82-5.50L226.82-5.50Q226.82-8 228.64-9.47L228.64-9.47L228.64-9.47Q230.46-10.94 233.15-10.94L233.15-10.94L233.15-10.94Q235.84-10.94 237.50-9.92L237.50-9.92L237.50-9.92Q236.67-7.81 236.67-6.40L236.67-6.40L236.67-6.40Q236.67-2.18 240.26-2.18L240.26-2.18L240.26-2.18Q241.79-2.18 242.82-3.14L242.82-3.14L242.82-3.14Q243.84-4.10 243.84-5.76L243.84-5.76L243.84-5.76Q243.84-9.02 238.34-12.48L238.34-12.48L238.34-12.48Q233.86-15.42 232.83-16.58L232.83-16.58L232.83-16.58Q231.10-18.62 231.10-21.18L231.10-21.18L231.10-21.18Q231.10-23.74 232.32-26.18L232.32-26.18L232.32-26.18Q233.54-28.61 235.78-30.34L235.78-30.34L235.78-30.34Q240.45-33.92 248.58-33.92L248.58-33.92L248.58-33.92Q252.74-33.92 255.20-32.26L255.20-32.26L255.20-32.26Q257.66-30.59 257.66-27.78L257.66-27.78L257.66-27.78Q257.66-24.96 255.97-23.36L255.97-23.36L255.97-23.36Q254.27-21.76 251.20-21.76L251.20-21.76L251.20-21.76Q249.09-21.76 248.06-22.46ZM280.38-7.23L280.38-7.23L280.38-7.23Q277.06-3.78 270.98-3.78L270.98-3.78L270.98-3.78Q263.36-3.78 261.76-9.34L261.76-9.34L261.76-9.34Q261.25-11.01 261.25-12.86L261.25-12.86L261.25-12.86Q261.25-14.72 261.63-16.64L261.63-16.64L264.64-32.64L277.63-33.92L274.11-15.30L274.11-15.30Q273.98-14.46 273.79-13.57L273.79-13.57L273.79-13.57Q273.60-12.67 273.60-11.74L273.60-11.74L273.60-11.74Q273.60-10.82 273.92-10.21L273.92-10.21L273.92-10.21Q274.24-9.60 274.69-9.22L274.69-9.22L274.69-9.22Q275.46-8.70 276.83-8.70L276.83-8.70L276.83-8.70Q278.21-8.70 279.39-10.37L279.39-10.37L279.39-10.37Q280.58-12.03 281.15-14.91L281.15-14.91L284.67-32.64L297.28-33.92L292.48-8.77L292.48-8.77Q290.11 3.52 285.25 8.38L285.25 8.38L285.25 8.38Q282.75 10.88 279.52 11.87L279.52 11.87L279.52 11.87Q276.29 12.86 272.13 12.86L272.13 12.86L272.13 12.86Q265.41 12.86 261.57 10.75L261.57 10.75L261.57 10.75Q257.73 8.64 257.73 5.12L257.73 5.12L257.73 5.12Q257.73 2.50 259.71 0.99L259.71 0.99L259.71 0.99Q261.70-0.51 264.77-0.51L264.77-0.51L264.77-0.51Q267.46-0.51 269.50 0.64L269.50 0.64L269.50 0.64Q270.72 1.34 271.30 2.24L271.30 2.24L271.30 2.24Q269.82 3.52 269.82 5.63L269.82 5.63L269.82 5.63Q269.82 8.45 272.38 8.45L272.38 8.45L272.38 8.45Q276.61 8.45 279.04-1.28L279.04-1.28L279.04-1.28Q279.74-4.16 280.38-7.23Z" fill="#ccc"></path></g></g><style>text {
  font-size: 64px;
  font-family: Arial Black;
  dominant-baseline: central;
  text-anchor: middle;
}</style></svg>